<mxfile host="app.diagrams.net" modified="2024-07-12T07:31:42.355Z" agent="Mozilla/5.0 (Windows NT 10.0; Win64; x64) AppleWebKit/537.36 (KHTML, like Gecko) Chrome/121.0.0.0 Safari/537.36 Edg/121.0.0.0" etag="DM6XjnxtpIdgNYSjJYhz" version="24.6.5" type="github">
  <diagram name="Page-1" id="jH9X4JJsDZ_ZStQkH7_o">
    <mxGraphModel dx="3366" dy="1893" grid="1" gridSize="10" guides="1" tooltips="1" connect="1" arrows="1" fold="1" page="1" pageScale="1" pageWidth="850" pageHeight="1100" math="0" shadow="0">
      <root>
        <mxCell id="0" />
        <mxCell id="1" parent="0" />
        <mxCell id="82_Ag931LT2ZOT2VYiMG-121" style="edgeStyle=orthogonalEdgeStyle;rounded=0;orthogonalLoop=1;jettySize=auto;html=1;exitX=0.5;exitY=0;exitDx=0;exitDy=0;entryX=0;entryY=0.5;entryDx=0;entryDy=0;" parent="1" source="qbZJIbXkHSn2Dnnv8URz-1" target="82_Ag931LT2ZOT2VYiMG-100" edge="1">
          <mxGeometry relative="1" as="geometry" />
        </mxCell>
        <mxCell id="jGQv9b9LemF5QD2wP8w_-19" value="Spire Product Owner" style="swimlane;horizontal=0;whiteSpace=wrap;html=1;startSize=40;" parent="1" vertex="1">
          <mxGeometry x="-1180" y="-200" width="6320" height="120" as="geometry" />
        </mxCell>
        <mxCell id="82_Ag931LT2ZOT2VYiMG-1" value="&lt;div&gt;&lt;font style=&quot;font-size: 18px;&quot;&gt;Handover to Infra Team&lt;/font&gt;&lt;/div&gt;" style="whiteSpace=wrap;html=1;aspect=fixed;spacing=1;" parent="jGQv9b9LemF5QD2wP8w_-19" vertex="1">
          <mxGeometry x="2390" y="4" width="107" height="107" as="geometry" />
        </mxCell>
        <mxCell id="jGQv9b9LemF5QD2wP8w_-6" value="&lt;font style=&quot;font-size: 18px;&quot;&gt;Infrastructure Guidance&lt;/font&gt;" style="whiteSpace=wrap;html=1;aspect=fixed;" parent="jGQv9b9LemF5QD2wP8w_-19" vertex="1">
          <mxGeometry x="1234" y="4" width="112" height="112" as="geometry" />
        </mxCell>
        <mxCell id="qbZJIbXkHSn2Dnnv8URz-4" value="&lt;font style=&quot;font-size: 18px;&quot;&gt;Demand Accepted&lt;/font&gt;" style="whiteSpace=wrap;html=1;aspect=fixed;" parent="jGQv9b9LemF5QD2wP8w_-19" vertex="1">
          <mxGeometry x="346" y="6" width="104" height="104" as="geometry" />
        </mxCell>
        <mxCell id="82_Ag931LT2ZOT2VYiMG-70" value="" style="group" parent="jGQv9b9LemF5QD2wP8w_-19" vertex="1" connectable="0">
          <mxGeometry x="429" y="87" width="16.4" height="20" as="geometry" />
        </mxCell>
        <mxCell id="82_Ag931LT2ZOT2VYiMG-67" value="" style="shape=tape;whiteSpace=wrap;html=1;fillColor=#4AFF68;" parent="82_Ag931LT2ZOT2VYiMG-70" vertex="1">
          <mxGeometry x="2.3428571428571425" width="14.057142857142855" height="10.526315789473685" as="geometry" />
        </mxCell>
        <mxCell id="82_Ag931LT2ZOT2VYiMG-69" value="" style="rounded=0;whiteSpace=wrap;html=1;fillColor=#663300;" parent="82_Ag931LT2ZOT2VYiMG-70" vertex="1">
          <mxGeometry y="2.105263157894737" width="2.3428571428571425" height="17.894736842105267" as="geometry" />
        </mxCell>
        <mxCell id="jGQv9b9LemF5QD2wP8w_-8" value="&lt;font style=&quot;font-size: 18px;&quot;&gt;Ticket Analysis, Breakdown &amp;amp; Handover&lt;/font&gt;" style="whiteSpace=wrap;html=1;aspect=fixed;" parent="jGQv9b9LemF5QD2wP8w_-19" vertex="1">
          <mxGeometry x="1409" y="3" width="113" height="113" as="geometry" />
        </mxCell>
        <mxCell id="82_Ag931LT2ZOT2VYiMG-153" value="&lt;font style=&quot;font-size: 18px;&quot;&gt;Ticket Analysis, Breakdown &amp;amp; Handover&lt;/font&gt;" style="whiteSpace=wrap;html=1;aspect=fixed;" parent="jGQv9b9LemF5QD2wP8w_-19" vertex="1">
          <mxGeometry x="3130" y="3" width="113" height="113" as="geometry" />
        </mxCell>
        <mxCell id="82_Ag931LT2ZOT2VYiMG-25" value="&lt;div&gt;&lt;font style=&quot;font-size: 18px;&quot;&gt;Handover to Infra Team&lt;/font&gt;&lt;/div&gt;" style="whiteSpace=wrap;html=1;aspect=fixed;spacing=1;" parent="jGQv9b9LemF5QD2wP8w_-19" vertex="1">
          <mxGeometry x="4190" y="7" width="103" height="103" as="geometry" />
        </mxCell>
        <mxCell id="82_Ag931LT2ZOT2VYiMG-188" value="" style="endArrow=none;dashed=1;html=1;rounded=0;" parent="jGQv9b9LemF5QD2wP8w_-19" edge="1">
          <mxGeometry width="50" height="50" relative="1" as="geometry">
            <mxPoint x="1140" y="730" as="sourcePoint" />
            <mxPoint x="1140" y="-50" as="targetPoint" />
          </mxGeometry>
        </mxCell>
        <mxCell id="jGQv9b9LemF5QD2wP8w_-20" value="Customer" style="swimlane;horizontal=0;whiteSpace=wrap;html=1;startSize=40;" parent="1" vertex="1">
          <mxGeometry x="-1180" y="70" width="6320" height="130" as="geometry" />
        </mxCell>
        <mxCell id="qbZJIbXkHSn2Dnnv8URz-3" value="&lt;font style=&quot;font-size: 18px;&quot;&gt;Create a Demand&lt;/font&gt;" style="whiteSpace=wrap;html=1;aspect=fixed;" parent="jGQv9b9LemF5QD2wP8w_-20" vertex="1">
          <mxGeometry x="246" y="11" width="99" height="99" as="geometry" />
        </mxCell>
        <mxCell id="82_Ag931LT2ZOT2VYiMG-110" value="&lt;div&gt;&lt;font style=&quot;font-size: 18px;&quot;&gt;Join Spire Governance HelpDesk&lt;/font&gt;&lt;/div&gt;" style="whiteSpace=wrap;html=1;aspect=fixed;spacing=1;" parent="jGQv9b9LemF5QD2wP8w_-20" vertex="1">
          <mxGeometry x="944" y="10.5" width="108" height="108" as="geometry" />
        </mxCell>
        <mxCell id="qbZJIbXkHSn2Dnnv8URz-2" value="&lt;font style=&quot;font-size: 18px;&quot;&gt;Submit Self On-boarding Process&lt;/font&gt;" style="whiteSpace=wrap;html=1;aspect=fixed;" parent="jGQv9b9LemF5QD2wP8w_-20" vertex="1">
          <mxGeometry x="780" y="9" width="108" height="108" as="geometry" />
        </mxCell>
        <mxCell id="qbZJIbXkHSn2Dnnv8URz-1" value="&lt;font style=&quot;font-size: 18px;&quot;&gt;What is Spire&lt;/font&gt;" style="whiteSpace=wrap;html=1;aspect=fixed;" parent="jGQv9b9LemF5QD2wP8w_-20" vertex="1">
          <mxGeometry x="49" y="13" width="97" height="97" as="geometry" />
        </mxCell>
        <mxCell id="82_Ag931LT2ZOT2VYiMG-127" value="&lt;font style=&quot;font-size: 18px;&quot;&gt;Raise Access Request&lt;/font&gt;" style="whiteSpace=wrap;html=1;aspect=fixed;" parent="jGQv9b9LemF5QD2wP8w_-20" vertex="1">
          <mxGeometry x="580" y="12.5" width="108" height="108" as="geometry" />
        </mxCell>
        <mxCell id="jGQv9b9LemF5QD2wP8w_-10" value="&lt;span style=&quot;font-size: 18px;&quot;&gt;Approval Participation&lt;/span&gt;" style="whiteSpace=wrap;html=1;aspect=fixed;spacing=1;" parent="jGQv9b9LemF5QD2wP8w_-20" vertex="1">
          <mxGeometry x="2270" y="3.5" width="113.5" height="113.5" as="geometry" />
        </mxCell>
        <mxCell id="jGQv9b9LemF5QD2wP8w_-9" value="&lt;div&gt;&lt;font style=&quot;font-size: 18px;&quot;&gt;Submit the Deliverables&lt;/font&gt;&lt;/div&gt;" style="whiteSpace=wrap;html=1;aspect=fixed;spacing=1;" parent="jGQv9b9LemF5QD2wP8w_-20" vertex="1">
          <mxGeometry x="1990" y="9.5" width="109" height="109" as="geometry" />
        </mxCell>
        <mxCell id="jGQv9b9LemF5QD2wP8w_-5" value="&lt;div&gt;&lt;font style=&quot;font-size: 18px;&quot;&gt;Approval Slot Booking&lt;/font&gt;&lt;/div&gt;" style="whiteSpace=wrap;html=1;aspect=fixed;spacing=1;" parent="jGQv9b9LemF5QD2wP8w_-20" vertex="1">
          <mxGeometry x="1705" y="8" width="102" height="102" as="geometry" />
        </mxCell>
        <mxCell id="jGQv9b9LemF5QD2wP8w_-4" value="&lt;div&gt;&lt;font style=&quot;font-size: 18px;&quot;&gt;Prepare Deliverables&lt;/font&gt;&lt;/div&gt;" style="whiteSpace=wrap;html=1;aspect=fixed;spacing=1;" parent="jGQv9b9LemF5QD2wP8w_-20" vertex="1">
          <mxGeometry x="1560" y="7" width="104" height="104" as="geometry" />
        </mxCell>
        <mxCell id="82_Ag931LT2ZOT2VYiMG-11" value="&lt;div&gt;&lt;font style=&quot;font-size: 18px;&quot;&gt;Prepare Deliverables&lt;/font&gt;&lt;/div&gt;" style="whiteSpace=wrap;html=1;aspect=fixed;spacing=1;" parent="jGQv9b9LemF5QD2wP8w_-20" vertex="1">
          <mxGeometry x="3300" y="9.75" width="103.5" height="103.5" as="geometry" />
        </mxCell>
        <mxCell id="82_Ag931LT2ZOT2VYiMG-111" value="&lt;span style=&quot;font-size: 18px;&quot;&gt;Infrastructure&lt;/span&gt;" style="whiteSpace=wrap;html=1;aspect=fixed;" parent="jGQv9b9LemF5QD2wP8w_-20" vertex="1">
          <mxGeometry x="2953" y="-129" width="109" height="109" as="geometry" />
        </mxCell>
        <mxCell id="82_Ag931LT2ZOT2VYiMG-135" value="&lt;font style=&quot;font-size: 18px;&quot;&gt;Raise Infrastructure Request&lt;/font&gt;" style="whiteSpace=wrap;html=1;aspect=fixed;" parent="jGQv9b9LemF5QD2wP8w_-20" vertex="1">
          <mxGeometry x="1236" y="5.5" width="110" height="110" as="geometry" />
        </mxCell>
        <mxCell id="jGQv9b9LemF5QD2wP8w_-2" value="&lt;div&gt;&lt;font style=&quot;font-size: 18px;&quot;&gt;Raise DEV Connection Request&lt;/font&gt;&lt;/div&gt;" style="whiteSpace=wrap;html=1;aspect=fixed;spacing=1;" parent="jGQv9b9LemF5QD2wP8w_-20" vertex="1">
          <mxGeometry x="2955" y="13.5" width="104.5" height="104.5" as="geometry" />
        </mxCell>
        <mxCell id="82_Ag931LT2ZOT2VYiMG-152" style="edgeStyle=orthogonalEdgeStyle;rounded=0;orthogonalLoop=1;jettySize=auto;html=1;" parent="jGQv9b9LemF5QD2wP8w_-20" source="82_Ag931LT2ZOT2VYiMG-111" target="jGQv9b9LemF5QD2wP8w_-2" edge="1">
          <mxGeometry relative="1" as="geometry" />
        </mxCell>
        <mxCell id="82_Ag931LT2ZOT2VYiMG-183" value="&lt;font style=&quot;font-size: 18px;&quot;&gt;Connection Confirmation&lt;/font&gt;" style="whiteSpace=wrap;html=1;aspect=fixed;spacing=1;" parent="jGQv9b9LemF5QD2wP8w_-20" vertex="1">
          <mxGeometry x="4480" y="5" width="116" height="116" as="geometry" />
        </mxCell>
        <mxCell id="82_Ag931LT2ZOT2VYiMG-157" value="&lt;div&gt;&lt;font style=&quot;font-size: 18px;&quot;&gt;Submit the Deliverables&lt;/font&gt;&lt;/div&gt;" style="whiteSpace=wrap;html=1;aspect=fixed;spacing=1;" parent="jGQv9b9LemF5QD2wP8w_-20" vertex="1">
          <mxGeometry x="3745" y="8.5" width="109" height="109" as="geometry" />
        </mxCell>
        <mxCell id="82_Ag931LT2ZOT2VYiMG-224" value="&lt;div&gt;&lt;font style=&quot;font-size: 18px;&quot;&gt;Submit the Deliverables&lt;/font&gt;&lt;/div&gt;" style="whiteSpace=wrap;html=1;aspect=fixed;spacing=1;" parent="jGQv9b9LemF5QD2wP8w_-20" vertex="1">
          <mxGeometry x="5450" y="8.5" width="111.5" height="111.5" as="geometry" />
        </mxCell>
        <mxCell id="jGQv9b9LemF5QD2wP8w_-22" value="Spire Governance Team" style="swimlane;horizontal=0;whiteSpace=wrap;html=1;startSize=40;" parent="1" vertex="1">
          <mxGeometry x="-1180" y="211" width="6320" height="159" as="geometry" />
        </mxCell>
        <mxCell id="82_Ag931LT2ZOT2VYiMG-109" value="&lt;font style=&quot;font-size: 18px;&quot;&gt;Tailored Governance Deliverables&amp;nbsp;&lt;/font&gt;" style="whiteSpace=wrap;html=1;aspect=fixed;" parent="jGQv9b9LemF5QD2wP8w_-22" vertex="1">
          <mxGeometry x="782" y="9" width="105" height="105" as="geometry" />
        </mxCell>
        <mxCell id="jGQv9b9LemF5QD2wP8w_-7" value="&lt;div&gt;&lt;font style=&quot;font-size: 18px;&quot;&gt;Governance General Support&lt;/font&gt;&lt;/div&gt;" style="whiteSpace=wrap;html=1;aspect=fixed;spacing=1;" parent="jGQv9b9LemF5QD2wP8w_-22" vertex="1">
          <mxGeometry x="946" y="17" width="104" height="104" as="geometry" />
        </mxCell>
        <mxCell id="jGQv9b9LemF5QD2wP8w_-15" value="&lt;div&gt;&lt;font style=&quot;font-size: 18px;&quot;&gt;Arranging Approval Slot&lt;/font&gt;&lt;/div&gt;" style="whiteSpace=wrap;html=1;aspect=fixed;spacing=1;" parent="jGQv9b9LemF5QD2wP8w_-22" vertex="1">
          <mxGeometry x="1840" y="5" width="110" height="110" as="geometry" />
        </mxCell>
        <mxCell id="jGQv9b9LemF5QD2wP8w_-13" value="&lt;div&gt;&lt;font style=&quot;font-size: 18px;&quot;&gt;Checking &amp;amp; Preparation&lt;/font&gt;&lt;/div&gt;" style="whiteSpace=wrap;html=1;aspect=fixed;spacing=1;" parent="jGQv9b9LemF5QD2wP8w_-22" vertex="1">
          <mxGeometry x="2108" y="4" width="113" height="113" as="geometry" />
        </mxCell>
        <mxCell id="jGQv9b9LemF5QD2wP8w_-16" value="&lt;div&gt;&lt;font style=&quot;font-size: 18px;&quot;&gt;Approved&lt;/font&gt;&lt;/div&gt;" style="whiteSpace=wrap;html=1;aspect=fixed;spacing=1;align=center;verticalAlign=middle;horizontal=1;labelPosition=center;verticalLabelPosition=middle;" parent="jGQv9b9LemF5QD2wP8w_-22" vertex="1">
          <mxGeometry x="2274" y="13" width="102" height="102" as="geometry" />
        </mxCell>
        <mxCell id="82_Ag931LT2ZOT2VYiMG-155" value="&lt;span style=&quot;font-size: 18px;&quot;&gt;Approval Participation&lt;/span&gt;" style="whiteSpace=wrap;html=1;aspect=fixed;spacing=1;" parent="jGQv9b9LemF5QD2wP8w_-22" vertex="1">
          <mxGeometry x="4025" y="-126.5" width="113.5" height="113.5" as="geometry" />
        </mxCell>
        <mxCell id="82_Ag931LT2ZOT2VYiMG-158" value="&lt;div&gt;&lt;font style=&quot;font-size: 18px;&quot;&gt;Approval Slot Booking&lt;/font&gt;&lt;/div&gt;" style="whiteSpace=wrap;html=1;aspect=fixed;spacing=1;" parent="jGQv9b9LemF5QD2wP8w_-22" vertex="1">
          <mxGeometry x="3460" y="-122" width="102" height="102" as="geometry" />
        </mxCell>
        <mxCell id="82_Ag931LT2ZOT2VYiMG-159" value="&lt;div&gt;&lt;font style=&quot;font-size: 18px;&quot;&gt;Arranging Approval Slot&lt;/font&gt;&lt;/div&gt;" style="whiteSpace=wrap;html=1;aspect=fixed;spacing=1;" parent="jGQv9b9LemF5QD2wP8w_-22" vertex="1">
          <mxGeometry x="3595" y="5" width="110" height="110" as="geometry" />
        </mxCell>
        <mxCell id="82_Ag931LT2ZOT2VYiMG-245" style="edgeStyle=orthogonalEdgeStyle;rounded=0;orthogonalLoop=1;jettySize=auto;html=1;entryX=0;entryY=0.5;entryDx=0;entryDy=0;exitX=0.5;exitY=0;exitDx=0;exitDy=0;" parent="jGQv9b9LemF5QD2wP8w_-22" source="82_Ag931LT2ZOT2VYiMG-160" target="82_Ag931LT2ZOT2VYiMG-155" edge="1">
          <mxGeometry relative="1" as="geometry" />
        </mxCell>
        <mxCell id="82_Ag931LT2ZOT2VYiMG-160" value="&lt;div&gt;&lt;font style=&quot;font-size: 18px;&quot;&gt;Checking &amp;amp; Preparation&lt;/font&gt;&lt;/div&gt;" style="whiteSpace=wrap;html=1;aspect=fixed;spacing=1;" parent="jGQv9b9LemF5QD2wP8w_-22" vertex="1">
          <mxGeometry x="3890" y="10" width="113" height="113" as="geometry" />
        </mxCell>
        <mxCell id="82_Ag931LT2ZOT2VYiMG-162" value="&lt;div&gt;&lt;font style=&quot;font-size: 18px;&quot;&gt;Approved&lt;/font&gt;&lt;/div&gt;" style="whiteSpace=wrap;html=1;aspect=fixed;spacing=1;align=center;verticalAlign=middle;horizontal=1;labelPosition=center;verticalLabelPosition=middle;" parent="jGQv9b9LemF5QD2wP8w_-22" vertex="1">
          <mxGeometry x="4029" y="13" width="102" height="102" as="geometry" />
        </mxCell>
        <mxCell id="82_Ag931LT2ZOT2VYiMG-168" style="edgeStyle=orthogonalEdgeStyle;rounded=0;orthogonalLoop=1;jettySize=auto;html=1;" parent="jGQv9b9LemF5QD2wP8w_-22" source="82_Ag931LT2ZOT2VYiMG-163" target="82_Ag931LT2ZOT2VYiMG-158" edge="1">
          <mxGeometry relative="1" as="geometry" />
        </mxCell>
        <mxCell id="82_Ag931LT2ZOT2VYiMG-163" value="&lt;font style=&quot;font-size: 18px;&quot;&gt;Legal Approval Slot Booking&lt;/font&gt;" style="whiteSpace=wrap;html=1;aspect=fixed;spacing=1;" parent="jGQv9b9LemF5QD2wP8w_-22" vertex="1">
          <mxGeometry x="3450" y="-270" width="116" height="116" as="geometry" />
        </mxCell>
        <mxCell id="82_Ag931LT2ZOT2VYiMG-164" style="edgeStyle=orthogonalEdgeStyle;rounded=0;orthogonalLoop=1;jettySize=auto;html=1;exitX=0.5;exitY=1;exitDx=0;exitDy=0;entryX=0;entryY=0.5;entryDx=0;entryDy=0;" parent="jGQv9b9LemF5QD2wP8w_-22" source="82_Ag931LT2ZOT2VYiMG-158" target="82_Ag931LT2ZOT2VYiMG-159" edge="1">
          <mxGeometry relative="1" as="geometry" />
        </mxCell>
        <mxCell id="82_Ag931LT2ZOT2VYiMG-166" style="edgeStyle=orthogonalEdgeStyle;rounded=0;orthogonalLoop=1;jettySize=auto;html=1;exitX=0.5;exitY=1;exitDx=0;exitDy=0;entryX=0.5;entryY=0;entryDx=0;entryDy=0;" parent="jGQv9b9LemF5QD2wP8w_-22" source="82_Ag931LT2ZOT2VYiMG-155" target="82_Ag931LT2ZOT2VYiMG-162" edge="1">
          <mxGeometry relative="1" as="geometry" />
        </mxCell>
        <mxCell id="82_Ag931LT2ZOT2VYiMG-237" style="edgeStyle=orthogonalEdgeStyle;rounded=0;orthogonalLoop=1;jettySize=auto;html=1;" parent="jGQv9b9LemF5QD2wP8w_-22" source="82_Ag931LT2ZOT2VYiMG-218" target="82_Ag931LT2ZOT2VYiMG-220" edge="1">
          <mxGeometry relative="1" as="geometry" />
        </mxCell>
        <mxCell id="82_Ag931LT2ZOT2VYiMG-218" value="&lt;font style=&quot;font-size: 18px;&quot;&gt;Ticket Analysis, Breakdown &amp;amp; Handover&lt;/font&gt;" style="whiteSpace=wrap;html=1;aspect=fixed;" parent="jGQv9b9LemF5QD2wP8w_-22" vertex="1">
          <mxGeometry x="4857" y="-406" width="113" height="113" as="geometry" />
        </mxCell>
        <mxCell id="82_Ag931LT2ZOT2VYiMG-256" style="edgeStyle=orthogonalEdgeStyle;rounded=0;orthogonalLoop=1;jettySize=auto;html=1;exitX=1;exitY=0.5;exitDx=0;exitDy=0;" parent="jGQv9b9LemF5QD2wP8w_-22" source="82_Ag931LT2ZOT2VYiMG-219" target="82_Ag931LT2ZOT2VYiMG-231" edge="1">
          <mxGeometry relative="1" as="geometry" />
        </mxCell>
        <mxCell id="82_Ag931LT2ZOT2VYiMG-219" value="&lt;div&gt;&lt;font style=&quot;font-size: 18px;&quot;&gt;Handover to Infra Team&lt;/font&gt;&lt;/div&gt;" style="whiteSpace=wrap;html=1;aspect=fixed;spacing=1;" parent="jGQv9b9LemF5QD2wP8w_-22" vertex="1">
          <mxGeometry x="5917" y="-406" width="103" height="103" as="geometry" />
        </mxCell>
        <mxCell id="82_Ag931LT2ZOT2VYiMG-238" style="edgeStyle=orthogonalEdgeStyle;rounded=0;orthogonalLoop=1;jettySize=auto;html=1;entryX=0;entryY=0.5;entryDx=0;entryDy=0;" parent="jGQv9b9LemF5QD2wP8w_-22" source="82_Ag931LT2ZOT2VYiMG-220" target="82_Ag931LT2ZOT2VYiMG-229" edge="1">
          <mxGeometry relative="1" as="geometry" />
        </mxCell>
        <mxCell id="82_Ag931LT2ZOT2VYiMG-220" value="&lt;div&gt;&lt;font style=&quot;font-size: 18px;&quot;&gt;Prepare Deliverables&lt;/font&gt;&lt;/div&gt;" style="whiteSpace=wrap;html=1;aspect=fixed;spacing=1;" parent="jGQv9b9LemF5QD2wP8w_-22" vertex="1">
          <mxGeometry x="5027" y="-133.25" width="103.5" height="103.5" as="geometry" />
        </mxCell>
        <mxCell id="82_Ag931LT2ZOT2VYiMG-234" style="edgeStyle=orthogonalEdgeStyle;rounded=0;orthogonalLoop=1;jettySize=auto;html=1;entryX=0.5;entryY=0;entryDx=0;entryDy=0;" parent="jGQv9b9LemF5QD2wP8w_-22" source="82_Ag931LT2ZOT2VYiMG-221" target="82_Ag931LT2ZOT2VYiMG-222" edge="1">
          <mxGeometry relative="1" as="geometry" />
        </mxCell>
        <mxCell id="82_Ag931LT2ZOT2VYiMG-221" value="&lt;span style=&quot;font-size: 18px;&quot;&gt;Infrastructure&lt;/span&gt;" style="whiteSpace=wrap;html=1;aspect=fixed;" parent="jGQv9b9LemF5QD2wP8w_-22" vertex="1">
          <mxGeometry x="4680" y="-272" width="109" height="109" as="geometry" />
        </mxCell>
        <mxCell id="82_Ag931LT2ZOT2VYiMG-236" style="edgeStyle=orthogonalEdgeStyle;rounded=0;orthogonalLoop=1;jettySize=auto;html=1;entryX=0;entryY=0.5;entryDx=0;entryDy=0;" parent="jGQv9b9LemF5QD2wP8w_-22" source="82_Ag931LT2ZOT2VYiMG-222" target="82_Ag931LT2ZOT2VYiMG-218" edge="1">
          <mxGeometry relative="1" as="geometry" />
        </mxCell>
        <mxCell id="82_Ag931LT2ZOT2VYiMG-222" value="&lt;div&gt;&lt;font style=&quot;font-size: 18px;&quot;&gt;Raise Int/Prod Connection Request&lt;/font&gt;&lt;/div&gt;" style="whiteSpace=wrap;html=1;aspect=fixed;spacing=1;" parent="jGQv9b9LemF5QD2wP8w_-22" vertex="1">
          <mxGeometry x="4682" y="-129.5" width="104.5" height="104.5" as="geometry" />
        </mxCell>
        <mxCell id="82_Ag931LT2ZOT2VYiMG-254" style="edgeStyle=orthogonalEdgeStyle;rounded=0;orthogonalLoop=1;jettySize=auto;html=1;exitX=0.5;exitY=1;exitDx=0;exitDy=0;entryX=0.5;entryY=0;entryDx=0;entryDy=0;" parent="jGQv9b9LemF5QD2wP8w_-22" source="82_Ag931LT2ZOT2VYiMG-223" target="82_Ag931LT2ZOT2VYiMG-228" edge="1">
          <mxGeometry relative="1" as="geometry" />
        </mxCell>
        <mxCell id="82_Ag931LT2ZOT2VYiMG-223" value="&lt;span style=&quot;font-size: 18px;&quot;&gt;Approval Participation&lt;/span&gt;" style="whiteSpace=wrap;html=1;aspect=fixed;spacing=1;" parent="jGQv9b9LemF5QD2wP8w_-22" vertex="1">
          <mxGeometry x="5752" y="-129.5" width="113.5" height="113.5" as="geometry" />
        </mxCell>
        <mxCell id="82_Ag931LT2ZOT2VYiMG-240" style="edgeStyle=orthogonalEdgeStyle;rounded=0;orthogonalLoop=1;jettySize=auto;html=1;entryX=0;entryY=0.5;entryDx=0;entryDy=0;exitX=0.5;exitY=1;exitDx=0;exitDy=0;" parent="jGQv9b9LemF5QD2wP8w_-22" source="82_Ag931LT2ZOT2VYiMG-225" target="82_Ag931LT2ZOT2VYiMG-226" edge="1">
          <mxGeometry relative="1" as="geometry" />
        </mxCell>
        <mxCell id="82_Ag931LT2ZOT2VYiMG-225" value="&lt;div&gt;&lt;font style=&quot;font-size: 18px;&quot;&gt;Approval Slot Booking&lt;/font&gt;&lt;/div&gt;" style="whiteSpace=wrap;html=1;aspect=fixed;spacing=1;" parent="jGQv9b9LemF5QD2wP8w_-22" vertex="1">
          <mxGeometry x="5187" y="-125" width="102" height="102" as="geometry" />
        </mxCell>
        <mxCell id="82_Ag931LT2ZOT2VYiMG-226" value="&lt;div&gt;&lt;font style=&quot;font-size: 18px;&quot;&gt;Arranging Approval Slot&lt;/font&gt;&lt;/div&gt;" style="whiteSpace=wrap;html=1;aspect=fixed;spacing=1;" parent="jGQv9b9LemF5QD2wP8w_-22" vertex="1">
          <mxGeometry x="5320" y="25" width="110" height="110" as="geometry" />
        </mxCell>
        <mxCell id="82_Ag931LT2ZOT2VYiMG-253" style="edgeStyle=orthogonalEdgeStyle;rounded=0;orthogonalLoop=1;jettySize=auto;html=1;exitX=1;exitY=0.5;exitDx=0;exitDy=0;entryX=0;entryY=0.5;entryDx=0;entryDy=0;" parent="jGQv9b9LemF5QD2wP8w_-22" source="82_Ag931LT2ZOT2VYiMG-227" target="82_Ag931LT2ZOT2VYiMG-223" edge="1">
          <mxGeometry relative="1" as="geometry" />
        </mxCell>
        <mxCell id="82_Ag931LT2ZOT2VYiMG-227" value="&lt;div&gt;&lt;font style=&quot;font-size: 18px;&quot;&gt;Checking &amp;amp; Preparation&lt;/font&gt;&lt;/div&gt;" style="whiteSpace=wrap;html=1;aspect=fixed;spacing=1;" parent="jGQv9b9LemF5QD2wP8w_-22" vertex="1">
          <mxGeometry x="5581" y="20" width="113" height="113" as="geometry" />
        </mxCell>
        <mxCell id="82_Ag931LT2ZOT2VYiMG-255" style="edgeStyle=orthogonalEdgeStyle;rounded=0;orthogonalLoop=1;jettySize=auto;html=1;entryX=0;entryY=0.5;entryDx=0;entryDy=0;" parent="jGQv9b9LemF5QD2wP8w_-22" source="82_Ag931LT2ZOT2VYiMG-228" target="82_Ag931LT2ZOT2VYiMG-219" edge="1">
          <mxGeometry relative="1" as="geometry" />
        </mxCell>
        <mxCell id="82_Ag931LT2ZOT2VYiMG-228" value="&lt;div&gt;&lt;font style=&quot;font-size: 18px;&quot;&gt;Approved&lt;/font&gt;&lt;/div&gt;" style="whiteSpace=wrap;html=1;aspect=fixed;spacing=1;align=center;verticalAlign=middle;horizontal=1;labelPosition=center;verticalLabelPosition=middle;" parent="jGQv9b9LemF5QD2wP8w_-22" vertex="1">
          <mxGeometry x="5756" y="10" width="120" height="120" as="geometry" />
        </mxCell>
        <mxCell id="82_Ag931LT2ZOT2VYiMG-239" style="edgeStyle=orthogonalEdgeStyle;rounded=0;orthogonalLoop=1;jettySize=auto;html=1;exitX=0.5;exitY=1;exitDx=0;exitDy=0;entryX=0.5;entryY=0;entryDx=0;entryDy=0;" parent="jGQv9b9LemF5QD2wP8w_-22" source="82_Ag931LT2ZOT2VYiMG-229" target="82_Ag931LT2ZOT2VYiMG-225" edge="1">
          <mxGeometry relative="1" as="geometry" />
        </mxCell>
        <mxCell id="82_Ag931LT2ZOT2VYiMG-229" value="&lt;font style=&quot;font-size: 18px;&quot;&gt;Legal Approval Slot Booking&lt;/font&gt;" style="whiteSpace=wrap;html=1;aspect=fixed;spacing=1;" parent="jGQv9b9LemF5QD2wP8w_-22" vertex="1">
          <mxGeometry x="5187" y="-258" width="106" height="106" as="geometry" />
        </mxCell>
        <mxCell id="82_Ag931LT2ZOT2VYiMG-230" value="&lt;div&gt;&lt;font style=&quot;font-size: 18px;&quot;&gt;Establish Int/Prod Connection&lt;/font&gt;&lt;/div&gt;" style="whiteSpace=wrap;html=1;aspect=fixed;spacing=1;" parent="jGQv9b9LemF5QD2wP8w_-22" vertex="1">
          <mxGeometry x="6200" y="177" width="113" height="113" as="geometry" />
        </mxCell>
        <mxCell id="82_Ag931LT2ZOT2VYiMG-258" style="edgeStyle=orthogonalEdgeStyle;rounded=0;orthogonalLoop=1;jettySize=auto;html=1;" parent="jGQv9b9LemF5QD2wP8w_-22" source="82_Ag931LT2ZOT2VYiMG-231" target="82_Ag931LT2ZOT2VYiMG-230" edge="1">
          <mxGeometry relative="1" as="geometry" />
        </mxCell>
        <mxCell id="82_Ag931LT2ZOT2VYiMG-231" value="&lt;span style=&quot;font-size: 18px;&quot;&gt;Int/Prod&lt;/span&gt;&lt;div&gt;&lt;span style=&quot;font-size: 18px;&quot;&gt;Connection Being Established&lt;/span&gt;&lt;/div&gt;" style="whiteSpace=wrap;html=1;aspect=fixed;spacing=1;" parent="jGQv9b9LemF5QD2wP8w_-22" vertex="1">
          <mxGeometry x="6067" y="178" width="110" height="110" as="geometry" />
        </mxCell>
        <mxCell id="82_Ag931LT2ZOT2VYiMG-34" value="Spire Infrastructure Team" style="swimlane;horizontal=0;whiteSpace=wrap;html=1;startSize=40;" parent="1" vertex="1">
          <mxGeometry x="-1180" y="383" width="6320" height="127" as="geometry" />
        </mxCell>
        <mxCell id="82_Ag931LT2ZOT2VYiMG-129" value="&lt;font style=&quot;font-size: 18px;&quot;&gt;Grant Access&lt;/font&gt;" style="whiteSpace=wrap;html=1;aspect=fixed;" parent="82_Ag931LT2ZOT2VYiMG-34" vertex="1">
          <mxGeometry x="580" y="7" width="108" height="108" as="geometry" />
        </mxCell>
        <mxCell id="82_Ag931LT2ZOT2VYiMG-148" style="edgeStyle=orthogonalEdgeStyle;rounded=0;orthogonalLoop=1;jettySize=auto;html=1;entryX=0;entryY=0.5;entryDx=0;entryDy=0;" parent="82_Ag931LT2ZOT2VYiMG-34" source="82_Ag931LT2ZOT2VYiMG-2" target="82_Ag931LT2ZOT2VYiMG-116" edge="1">
          <mxGeometry relative="1" as="geometry" />
        </mxCell>
        <mxCell id="82_Ag931LT2ZOT2VYiMG-2" value="&lt;div&gt;&lt;font style=&quot;font-size: 18px;&quot;&gt;Infrastructure Build&lt;/font&gt;&lt;/div&gt;" style="whiteSpace=wrap;html=1;aspect=fixed;spacing=1;" parent="82_Ag931LT2ZOT2VYiMG-34" vertex="1">
          <mxGeometry x="2599" y="5" width="110" height="110" as="geometry" />
        </mxCell>
        <mxCell id="82_Ag931LT2ZOT2VYiMG-116" value="&lt;font style=&quot;font-size: 18px;&quot;&gt;Technical&lt;/font&gt;&lt;div&gt;&lt;font style=&quot;font-size: 18px;&quot;&gt;Onboarding&amp;nbsp;&lt;/font&gt;&lt;/div&gt;" style="whiteSpace=wrap;html=1;aspect=fixed;spacing=1;" parent="82_Ag931LT2ZOT2VYiMG-34" vertex="1">
          <mxGeometry x="2734" y="3" width="113" height="113" as="geometry" />
        </mxCell>
        <mxCell id="82_Ag931LT2ZOT2VYiMG-169" value="" style="group" parent="82_Ag931LT2ZOT2VYiMG-34" vertex="1" connectable="0">
          <mxGeometry x="2819" y="91" width="16.4" height="20" as="geometry" />
        </mxCell>
        <mxCell id="82_Ag931LT2ZOT2VYiMG-170" value="" style="shape=tape;whiteSpace=wrap;html=1;fillColor=#4AFF68;" parent="82_Ag931LT2ZOT2VYiMG-169" vertex="1">
          <mxGeometry x="2.3428571428571425" width="14.057142857142855" height="10.526315789473685" as="geometry" />
        </mxCell>
        <mxCell id="82_Ag931LT2ZOT2VYiMG-171" value="" style="rounded=0;whiteSpace=wrap;html=1;fillColor=#663300;" parent="82_Ag931LT2ZOT2VYiMG-169" vertex="1">
          <mxGeometry y="2.105263157894737" width="2.3428571428571425" height="17.894736842105267" as="geometry" />
        </mxCell>
        <mxCell id="82_Ag931LT2ZOT2VYiMG-184" style="edgeStyle=orthogonalEdgeStyle;rounded=0;orthogonalLoop=1;jettySize=auto;html=1;" parent="82_Ag931LT2ZOT2VYiMG-34" source="82_Ag931LT2ZOT2VYiMG-18" edge="1">
          <mxGeometry relative="1" as="geometry">
            <mxPoint x="4527.5" y="-193" as="targetPoint" />
          </mxGeometry>
        </mxCell>
        <mxCell id="82_Ag931LT2ZOT2VYiMG-18" value="&lt;div&gt;&lt;font style=&quot;font-size: 18px;&quot;&gt;Establish DEV Connection&lt;/font&gt;&lt;/div&gt;" style="whiteSpace=wrap;html=1;aspect=fixed;spacing=1;" parent="82_Ag931LT2ZOT2VYiMG-34" vertex="1">
          <mxGeometry x="4473" y="5" width="109" height="109" as="geometry" />
        </mxCell>
        <mxCell id="82_Ag931LT2ZOT2VYiMG-177" style="edgeStyle=orthogonalEdgeStyle;rounded=0;orthogonalLoop=1;jettySize=auto;html=1;exitX=1;exitY=0.5;exitDx=0;exitDy=0;" parent="82_Ag931LT2ZOT2VYiMG-34" source="82_Ag931LT2ZOT2VYiMG-176" target="82_Ag931LT2ZOT2VYiMG-2" edge="1">
          <mxGeometry relative="1" as="geometry" />
        </mxCell>
        <mxCell id="82_Ag931LT2ZOT2VYiMG-176" value="&lt;span style=&quot;font-size: 18px;&quot;&gt;Infrastructure Being Established&lt;/span&gt;" style="whiteSpace=wrap;html=1;aspect=fixed;spacing=1;" parent="82_Ag931LT2ZOT2VYiMG-34" vertex="1">
          <mxGeometry x="2462" y="5" width="110" height="110" as="geometry" />
        </mxCell>
        <mxCell id="82_Ag931LT2ZOT2VYiMG-182" style="edgeStyle=orthogonalEdgeStyle;rounded=0;orthogonalLoop=1;jettySize=auto;html=1;exitX=1;exitY=0.5;exitDx=0;exitDy=0;" parent="82_Ag931LT2ZOT2VYiMG-34" source="82_Ag931LT2ZOT2VYiMG-180" target="82_Ag931LT2ZOT2VYiMG-18" edge="1">
          <mxGeometry relative="1" as="geometry" />
        </mxCell>
        <mxCell id="82_Ag931LT2ZOT2VYiMG-180" value="&lt;span style=&quot;font-size: 18px;&quot;&gt;DEV Connection Being Established&lt;/span&gt;" style="whiteSpace=wrap;html=1;aspect=fixed;spacing=1;" parent="82_Ag931LT2ZOT2VYiMG-34" vertex="1">
          <mxGeometry x="4340" y="5" width="110" height="110" as="geometry" />
        </mxCell>
        <mxCell id="82_Ag931LT2ZOT2VYiMG-190" value="" style="group" parent="82_Ag931LT2ZOT2VYiMG-34" vertex="1" connectable="0">
          <mxGeometry x="4550" y="87" width="20" height="25" as="geometry" />
        </mxCell>
        <mxCell id="82_Ag931LT2ZOT2VYiMG-191" value="" style="shape=tape;whiteSpace=wrap;html=1;fillColor=#4AFF68;" parent="82_Ag931LT2ZOT2VYiMG-190" vertex="1">
          <mxGeometry x="2.86" width="17.14" height="10" as="geometry" />
        </mxCell>
        <mxCell id="82_Ag931LT2ZOT2VYiMG-192" value="" style="rounded=0;whiteSpace=wrap;html=1;fillColor=#663300;" parent="82_Ag931LT2ZOT2VYiMG-190" vertex="1">
          <mxGeometry y="2.63" width="2.86" height="22.37" as="geometry" />
        </mxCell>
        <mxCell id="82_Ag931LT2ZOT2VYiMG-95" value="Spire Service Desk" style="swimlane;horizontal=0;whiteSpace=wrap;html=1;startSize=40;" parent="1" vertex="1">
          <mxGeometry x="-1180" y="-65" width="6320" height="130" as="geometry" />
        </mxCell>
        <mxCell id="82_Ag931LT2ZOT2VYiMG-100" value="&lt;font style=&quot;font-size: 18px;&quot;&gt;Initial Demand&lt;/font&gt;" style="whiteSpace=wrap;html=1;aspect=fixed;" parent="82_Ag931LT2ZOT2VYiMG-95" vertex="1">
          <mxGeometry x="146" y="14" width="96" height="96" as="geometry" />
        </mxCell>
        <mxCell id="82_Ag931LT2ZOT2VYiMG-103" value="&lt;font style=&quot;font-size: 18px;&quot;&gt;Legal Self Onboarding Process&lt;/font&gt;" style="whiteSpace=wrap;html=1;aspect=fixed;" parent="82_Ag931LT2ZOT2VYiMG-95" vertex="1">
          <mxGeometry x="780" y="6" width="108" height="108" as="geometry" />
        </mxCell>
        <mxCell id="82_Ag931LT2ZOT2VYiMG-107" value="&lt;font style=&quot;font-size: 18px;&quot;&gt;Infrastructure&lt;/font&gt;" style="whiteSpace=wrap;html=1;aspect=fixed;" parent="82_Ag931LT2ZOT2VYiMG-95" vertex="1">
          <mxGeometry x="1236" y="7" width="110" height="110" as="geometry" />
        </mxCell>
        <mxCell id="82_Ag931LT2ZOT2VYiMG-128" value="&lt;font style=&quot;font-size: 18px;&quot;&gt;Access&lt;/font&gt;" style="whiteSpace=wrap;html=1;aspect=fixed;" parent="82_Ag931LT2ZOT2VYiMG-95" vertex="1">
          <mxGeometry x="580" y="6" width="108" height="108" as="geometry" />
        </mxCell>
        <mxCell id="82_Ag931LT2ZOT2VYiMG-114" value="&lt;font style=&quot;font-size: 18px;&quot;&gt;Legal Approval Slot Booking&lt;/font&gt;" style="whiteSpace=wrap;html=1;aspect=fixed;spacing=1;" parent="82_Ag931LT2ZOT2VYiMG-95" vertex="1">
          <mxGeometry x="1705" y="10" width="106" height="106" as="geometry" />
        </mxCell>
        <mxCell id="82_Ag931LT2ZOT2VYiMG-117" value="&lt;font style=&quot;font-size: 18px;&quot;&gt;Infra Support/ Key Platform Changes&lt;/font&gt;" style="whiteSpace=wrap;html=1;aspect=fixed;spacing=1;" parent="82_Ag931LT2ZOT2VYiMG-95" vertex="1">
          <mxGeometry x="2790" y="4" width="116" height="116" as="geometry" />
        </mxCell>
        <mxCell id="82_Ag931LT2ZOT2VYiMG-122" style="edgeStyle=orthogonalEdgeStyle;rounded=0;orthogonalLoop=1;jettySize=auto;html=1;exitX=1;exitY=0.5;exitDx=0;exitDy=0;entryX=0.5;entryY=0;entryDx=0;entryDy=0;" parent="1" source="82_Ag931LT2ZOT2VYiMG-100" target="qbZJIbXkHSn2Dnnv8URz-3" edge="1">
          <mxGeometry relative="1" as="geometry" />
        </mxCell>
        <mxCell id="82_Ag931LT2ZOT2VYiMG-123" style="edgeStyle=orthogonalEdgeStyle;rounded=0;orthogonalLoop=1;jettySize=auto;html=1;exitX=1;exitY=0.5;exitDx=0;exitDy=0;entryX=0.5;entryY=1;entryDx=0;entryDy=0;" parent="1" source="qbZJIbXkHSn2Dnnv8URz-3" target="qbZJIbXkHSn2Dnnv8URz-4" edge="1">
          <mxGeometry relative="1" as="geometry" />
        </mxCell>
        <mxCell id="82_Ag931LT2ZOT2VYiMG-130" style="edgeStyle=orthogonalEdgeStyle;rounded=0;orthogonalLoop=1;jettySize=auto;html=1;" parent="1" source="82_Ag931LT2ZOT2VYiMG-128" target="82_Ag931LT2ZOT2VYiMG-127" edge="1">
          <mxGeometry relative="1" as="geometry" />
        </mxCell>
        <mxCell id="82_Ag931LT2ZOT2VYiMG-131" style="edgeStyle=orthogonalEdgeStyle;rounded=0;orthogonalLoop=1;jettySize=auto;html=1;" parent="1" source="82_Ag931LT2ZOT2VYiMG-127" target="82_Ag931LT2ZOT2VYiMG-129" edge="1">
          <mxGeometry relative="1" as="geometry" />
        </mxCell>
        <mxCell id="82_Ag931LT2ZOT2VYiMG-132" style="edgeStyle=orthogonalEdgeStyle;rounded=0;orthogonalLoop=1;jettySize=auto;html=1;" parent="1" source="82_Ag931LT2ZOT2VYiMG-103" target="qbZJIbXkHSn2Dnnv8URz-2" edge="1">
          <mxGeometry relative="1" as="geometry" />
        </mxCell>
        <mxCell id="82_Ag931LT2ZOT2VYiMG-133" style="edgeStyle=orthogonalEdgeStyle;rounded=0;orthogonalLoop=1;jettySize=auto;html=1;" parent="1" source="qbZJIbXkHSn2Dnnv8URz-2" target="82_Ag931LT2ZOT2VYiMG-109" edge="1">
          <mxGeometry relative="1" as="geometry" />
        </mxCell>
        <mxCell id="82_Ag931LT2ZOT2VYiMG-134" style="edgeStyle=orthogonalEdgeStyle;rounded=0;orthogonalLoop=1;jettySize=auto;html=1;exitX=0.5;exitY=1;exitDx=0;exitDy=0;" parent="1" source="82_Ag931LT2ZOT2VYiMG-110" target="jGQv9b9LemF5QD2wP8w_-7" edge="1">
          <mxGeometry relative="1" as="geometry" />
        </mxCell>
        <mxCell id="jGQv9b9LemF5QD2wP8w_-33" style="edgeStyle=orthogonalEdgeStyle;rounded=0;orthogonalLoop=1;jettySize=auto;html=1;exitX=0.5;exitY=1;exitDx=0;exitDy=0;entryX=0;entryY=0.5;entryDx=0;entryDy=0;" parent="1" source="jGQv9b9LemF5QD2wP8w_-5" target="jGQv9b9LemF5QD2wP8w_-15" edge="1">
          <mxGeometry relative="1" as="geometry" />
        </mxCell>
        <mxCell id="82_Ag931LT2ZOT2VYiMG-136" style="edgeStyle=orthogonalEdgeStyle;rounded=0;orthogonalLoop=1;jettySize=auto;html=1;exitX=0.5;exitY=0;exitDx=0;exitDy=0;entryX=0;entryY=0.5;entryDx=0;entryDy=0;" parent="1" source="jGQv9b9LemF5QD2wP8w_-4" target="82_Ag931LT2ZOT2VYiMG-114" edge="1">
          <mxGeometry relative="1" as="geometry" />
        </mxCell>
        <mxCell id="82_Ag931LT2ZOT2VYiMG-137" style="edgeStyle=orthogonalEdgeStyle;rounded=0;orthogonalLoop=1;jettySize=auto;html=1;exitX=0.5;exitY=1;exitDx=0;exitDy=0;entryX=0.5;entryY=0;entryDx=0;entryDy=0;" parent="1" source="82_Ag931LT2ZOT2VYiMG-114" target="jGQv9b9LemF5QD2wP8w_-5" edge="1">
          <mxGeometry relative="1" as="geometry" />
        </mxCell>
        <mxCell id="82_Ag931LT2ZOT2VYiMG-138" style="edgeStyle=orthogonalEdgeStyle;rounded=0;orthogonalLoop=1;jettySize=auto;html=1;exitX=0.5;exitY=1;exitDx=0;exitDy=0;entryX=0.5;entryY=0;entryDx=0;entryDy=0;" parent="1" source="jGQv9b9LemF5QD2wP8w_-6" target="82_Ag931LT2ZOT2VYiMG-107" edge="1">
          <mxGeometry relative="1" as="geometry" />
        </mxCell>
        <mxCell id="82_Ag931LT2ZOT2VYiMG-139" style="edgeStyle=orthogonalEdgeStyle;rounded=0;orthogonalLoop=1;jettySize=auto;html=1;entryX=0.5;entryY=0;entryDx=0;entryDy=0;" parent="1" source="82_Ag931LT2ZOT2VYiMG-107" target="82_Ag931LT2ZOT2VYiMG-135" edge="1">
          <mxGeometry relative="1" as="geometry" />
        </mxCell>
        <mxCell id="82_Ag931LT2ZOT2VYiMG-140" style="edgeStyle=orthogonalEdgeStyle;rounded=0;orthogonalLoop=1;jettySize=auto;html=1;exitX=1;exitY=0.5;exitDx=0;exitDy=0;entryX=0;entryY=0.5;entryDx=0;entryDy=0;" parent="1" source="82_Ag931LT2ZOT2VYiMG-135" target="jGQv9b9LemF5QD2wP8w_-8" edge="1">
          <mxGeometry relative="1" as="geometry" />
        </mxCell>
        <mxCell id="82_Ag931LT2ZOT2VYiMG-143" style="edgeStyle=orthogonalEdgeStyle;rounded=0;orthogonalLoop=1;jettySize=auto;html=1;entryX=0;entryY=0.5;entryDx=0;entryDy=0;exitX=0.5;exitY=1;exitDx=0;exitDy=0;" parent="1" source="jGQv9b9LemF5QD2wP8w_-8" target="jGQv9b9LemF5QD2wP8w_-4" edge="1">
          <mxGeometry relative="1" as="geometry" />
        </mxCell>
        <mxCell id="jGQv9b9LemF5QD2wP8w_-37" style="edgeStyle=orthogonalEdgeStyle;rounded=0;orthogonalLoop=1;jettySize=auto;html=1;exitX=0.5;exitY=1;exitDx=0;exitDy=0;entryX=0.5;entryY=0;entryDx=0;entryDy=0;" parent="1" source="jGQv9b9LemF5QD2wP8w_-10" target="jGQv9b9LemF5QD2wP8w_-16" edge="1">
          <mxGeometry relative="1" as="geometry" />
        </mxCell>
        <mxCell id="jGQv9b9LemF5QD2wP8w_-38" style="edgeStyle=orthogonalEdgeStyle;rounded=0;orthogonalLoop=1;jettySize=auto;html=1;exitX=1;exitY=0.5;exitDx=0;exitDy=0;entryX=0.5;entryY=1;entryDx=0;entryDy=0;" parent="1" source="jGQv9b9LemF5QD2wP8w_-16" target="82_Ag931LT2ZOT2VYiMG-1" edge="1">
          <mxGeometry relative="1" as="geometry">
            <mxPoint x="1260" y="-80" as="targetPoint" />
          </mxGeometry>
        </mxCell>
        <mxCell id="82_Ag931LT2ZOT2VYiMG-144" style="edgeStyle=orthogonalEdgeStyle;rounded=0;orthogonalLoop=1;jettySize=auto;html=1;" parent="1" source="jGQv9b9LemF5QD2wP8w_-16" target="jGQv9b9LemF5QD2wP8w_-4" edge="1">
          <mxGeometry relative="1" as="geometry">
            <mxPoint x="425.55555555555566" y="190" as="targetPoint" />
            <Array as="points">
              <mxPoint x="1145" y="340" />
              <mxPoint x="426" y="340" />
            </Array>
          </mxGeometry>
        </mxCell>
        <mxCell id="82_Ag931LT2ZOT2VYiMG-146" style="edgeStyle=orthogonalEdgeStyle;rounded=0;orthogonalLoop=1;jettySize=auto;html=1;exitX=1;exitY=0.5;exitDx=0;exitDy=0;entryX=0.5;entryY=0;entryDx=0;entryDy=0;" parent="1" source="82_Ag931LT2ZOT2VYiMG-1" target="82_Ag931LT2ZOT2VYiMG-176" edge="1">
          <mxGeometry relative="1" as="geometry" />
        </mxCell>
        <mxCell id="82_Ag931LT2ZOT2VYiMG-149" style="edgeStyle=orthogonalEdgeStyle;rounded=0;orthogonalLoop=1;jettySize=auto;html=1;entryX=0.5;entryY=1;entryDx=0;entryDy=0;exitX=0.5;exitY=0;exitDx=0;exitDy=0;" parent="1" source="82_Ag931LT2ZOT2VYiMG-116" target="82_Ag931LT2ZOT2VYiMG-117" edge="1">
          <mxGeometry relative="1" as="geometry">
            <mxPoint x="1610" y="370" as="sourcePoint" />
          </mxGeometry>
        </mxCell>
        <mxCell id="82_Ag931LT2ZOT2VYiMG-154" style="edgeStyle=orthogonalEdgeStyle;rounded=0;orthogonalLoop=1;jettySize=auto;html=1;entryX=0;entryY=0.5;entryDx=0;entryDy=0;" parent="1" source="jGQv9b9LemF5QD2wP8w_-2" target="82_Ag931LT2ZOT2VYiMG-153" edge="1">
          <mxGeometry relative="1" as="geometry" />
        </mxCell>
        <mxCell id="82_Ag931LT2ZOT2VYiMG-167" style="edgeStyle=orthogonalEdgeStyle;rounded=0;orthogonalLoop=1;jettySize=auto;html=1;entryX=0;entryY=0.5;entryDx=0;entryDy=0;" parent="1" source="82_Ag931LT2ZOT2VYiMG-11" target="82_Ag931LT2ZOT2VYiMG-163" edge="1">
          <mxGeometry relative="1" as="geometry" />
        </mxCell>
        <mxCell id="82_Ag931LT2ZOT2VYiMG-173" value="" style="endArrow=none;dashed=1;html=1;dashPattern=1 3;strokeWidth=2;rounded=0;" parent="1" edge="1">
          <mxGeometry width="50" height="50" relative="1" as="geometry">
            <mxPoint x="1740" y="550" as="sourcePoint" />
            <mxPoint x="1740" y="-240" as="targetPoint" />
          </mxGeometry>
        </mxCell>
        <mxCell id="82_Ag931LT2ZOT2VYiMG-174" style="edgeStyle=orthogonalEdgeStyle;rounded=0;orthogonalLoop=1;jettySize=auto;html=1;entryX=0;entryY=0.5;entryDx=0;entryDy=0;" parent="1" source="82_Ag931LT2ZOT2VYiMG-162" target="82_Ag931LT2ZOT2VYiMG-25" edge="1">
          <mxGeometry relative="1" as="geometry" />
        </mxCell>
        <mxCell id="82_Ag931LT2ZOT2VYiMG-181" style="edgeStyle=orthogonalEdgeStyle;rounded=0;orthogonalLoop=1;jettySize=auto;html=1;entryX=0;entryY=0.5;entryDx=0;entryDy=0;" parent="1" source="82_Ag931LT2ZOT2VYiMG-25" target="82_Ag931LT2ZOT2VYiMG-180" edge="1">
          <mxGeometry relative="1" as="geometry" />
        </mxCell>
        <mxCell id="82_Ag931LT2ZOT2VYiMG-187" value="" style="endArrow=none;dashed=1;html=1;rounded=0;" parent="1" edge="1">
          <mxGeometry width="50" height="50" relative="1" as="geometry">
            <mxPoint x="-680" y="540" as="sourcePoint" />
            <mxPoint x="-680" y="-240" as="targetPoint" />
          </mxGeometry>
        </mxCell>
        <mxCell id="82_Ag931LT2ZOT2VYiMG-189" style="edgeStyle=orthogonalEdgeStyle;rounded=0;orthogonalLoop=1;jettySize=auto;html=1;entryX=0;entryY=0.5;entryDx=0;entryDy=0;exitX=0.5;exitY=1;exitDx=0;exitDy=0;" parent="1" source="82_Ag931LT2ZOT2VYiMG-153" target="82_Ag931LT2ZOT2VYiMG-11" edge="1">
          <mxGeometry relative="1" as="geometry" />
        </mxCell>
        <mxCell id="82_Ag931LT2ZOT2VYiMG-198" value="" style="endArrow=none;dashed=1;html=1;dashPattern=1 3;strokeWidth=2;rounded=0;" parent="1" edge="1">
          <mxGeometry width="50" height="50" relative="1" as="geometry">
            <mxPoint x="3480" y="550" as="sourcePoint" />
            <mxPoint x="3480" y="-240" as="targetPoint" />
          </mxGeometry>
        </mxCell>
        <mxCell id="82_Ag931LT2ZOT2VYiMG-243" style="edgeStyle=orthogonalEdgeStyle;rounded=0;orthogonalLoop=1;jettySize=auto;html=1;entryX=0;entryY=0.5;entryDx=0;entryDy=0;" parent="1" source="82_Ag931LT2ZOT2VYiMG-159" target="82_Ag931LT2ZOT2VYiMG-157" edge="1">
          <mxGeometry relative="1" as="geometry" />
        </mxCell>
        <mxCell id="82_Ag931LT2ZOT2VYiMG-244" style="edgeStyle=orthogonalEdgeStyle;rounded=0;orthogonalLoop=1;jettySize=auto;html=1;exitX=0.5;exitY=1;exitDx=0;exitDy=0;entryX=0.001;entryY=0.571;entryDx=0;entryDy=0;entryPerimeter=0;" parent="1" source="82_Ag931LT2ZOT2VYiMG-157" target="82_Ag931LT2ZOT2VYiMG-160" edge="1">
          <mxGeometry relative="1" as="geometry" />
        </mxCell>
        <mxCell id="82_Ag931LT2ZOT2VYiMG-246" style="edgeStyle=orthogonalEdgeStyle;rounded=0;orthogonalLoop=1;jettySize=auto;html=1;entryX=0;entryY=0.5;entryDx=0;entryDy=0;" parent="1" source="jGQv9b9LemF5QD2wP8w_-15" target="jGQv9b9LemF5QD2wP8w_-9" edge="1">
          <mxGeometry relative="1" as="geometry" />
        </mxCell>
        <mxCell id="82_Ag931LT2ZOT2VYiMG-247" style="edgeStyle=orthogonalEdgeStyle;rounded=0;orthogonalLoop=1;jettySize=auto;html=1;exitX=0.419;exitY=0.994;exitDx=0;exitDy=0;entryX=0;entryY=0.5;entryDx=0;entryDy=0;exitPerimeter=0;" parent="1" source="jGQv9b9LemF5QD2wP8w_-9" target="jGQv9b9LemF5QD2wP8w_-13" edge="1">
          <mxGeometry relative="1" as="geometry" />
        </mxCell>
        <mxCell id="82_Ag931LT2ZOT2VYiMG-248" style="edgeStyle=orthogonalEdgeStyle;rounded=0;orthogonalLoop=1;jettySize=auto;html=1;exitX=0.5;exitY=0;exitDx=0;exitDy=0;entryX=0;entryY=0.5;entryDx=0;entryDy=0;" parent="1" source="jGQv9b9LemF5QD2wP8w_-13" target="jGQv9b9LemF5QD2wP8w_-10" edge="1">
          <mxGeometry relative="1" as="geometry" />
        </mxCell>
        <mxCell id="82_Ag931LT2ZOT2VYiMG-250" style="edgeStyle=orthogonalEdgeStyle;rounded=0;orthogonalLoop=1;jettySize=auto;html=1;entryX=0;entryY=0.5;entryDx=0;entryDy=0;exitX=0.5;exitY=1;exitDx=0;exitDy=0;" parent="1" source="82_Ag931LT2ZOT2VYiMG-224" target="82_Ag931LT2ZOT2VYiMG-227" edge="1">
          <mxGeometry relative="1" as="geometry" />
        </mxCell>
        <mxCell id="82_Ag931LT2ZOT2VYiMG-252" style="edgeStyle=orthogonalEdgeStyle;rounded=0;orthogonalLoop=1;jettySize=auto;html=1;entryX=0;entryY=0.5;entryDx=0;entryDy=0;exitX=0.5;exitY=0;exitDx=0;exitDy=0;" parent="1" source="82_Ag931LT2ZOT2VYiMG-226" target="82_Ag931LT2ZOT2VYiMG-224" edge="1">
          <mxGeometry relative="1" as="geometry" />
        </mxCell>
        <mxCell id="82_Ag931LT2ZOT2VYiMG-260" value="" style="shape=tape;whiteSpace=wrap;html=1;fillColor=#4AFF68;" parent="1" vertex="1">
          <mxGeometry x="5110.942857142858" y="474" width="14.057142857142855" height="10.526315789473685" as="geometry" />
        </mxCell>
        <mxCell id="82_Ag931LT2ZOT2VYiMG-261" value="" style="rounded=0;whiteSpace=wrap;html=1;fillColor=#663300;" parent="1" vertex="1">
          <mxGeometry x="5108.6" y="476.10526315789474" width="2.3428571428571425" height="17.894736842105267" as="geometry" />
        </mxCell>
      </root>
    </mxGraphModel>
  </diagram>
</mxfile>
